<svg xmlns="http://www.w3.org/2000/svg" width="165.6mm" height="165.6mm" viewBox="0 0 90 90">
<path style="fill:#ffffff; stroke:none;" d="M0 0L0 30L10 30L10 10L20 10L20 0L0 0z"></path>
<path style="fill:#000000; stroke:none;" d="M20 0L20 10L10 10L10 30L0 30L0 50L10 50L10 60L0 60L0 90L10 90L10 80L20 80L20 90L30 90L30 80L40 80L40 90L50 90L50 80L60 80L60 90L90 90L90 80L80 80L80 0L70 0L70 10L30 10L30 0L20 0z"></path>
<path style="fill:#ffffff; stroke:none;" d="M30 0L30 10L70 10L70 0L30 0M80 0L80 80L90 80L90 0L80 0M20 20L20 70L70 70L70 20L20 20z"></path>
<path style="fill:#000000; stroke:none;" d="M50 30L50 40L40 40L40 50L30 50L30 60L40 60L40 50L60 50L60 30L50 30z"></path>
<path style="fill:#ffffff; stroke:none;" d="M0 50L0 60L10 60L10 50L0 50M10 80L10 90L20 90L20 80L10 80M30 80L30 90L40 90L40 80L30 80M50 80L50 90L60 90L60 80L50 80z"></path>
</svg>