<svg xmlns="http://www.w3.org/2000/svg" width="165.6mm" height="165.6mm" viewBox="0 0 90 90">
<path style="fill:#ffffff; stroke:none;" d="M0 0L0 30L10 30L10 10L20 10L20 0L0 0z"></path>
<path style="fill:#000000; stroke:none;" d="M20 0L20 10L10 10L10 30L0 30L0 40L10 40L10 50L0 50L0 70L10 70L10 80L20 80L20 90L30 90L30 80L50 80L50 90L80 90L80 80L90 80L90 60L80 60L80 50L90 50L90 40L80 40L80 10L90 10L90 0L80 0L80 10L30 10L30 0L20 0z"></path>
<path style="fill:#ffffff; stroke:none;" d="M30 0L30 10L80 10L80 0L30 0M80 10L80 40L90 40L90 10L80 10M20 20L20 70L70 70L70 20L20 20z"></path>
<path style="fill:#000000; stroke:none;" d="M30 30L30 40L50 40L50 50L60 50L60 30L30 30z"></path>
<path style="fill:#ffffff; stroke:none;" d="M0 40L0 50L10 50L10 40L0 40M80 50L80 60L90 60L90 50L80 50M0 70L0 90L20 90L20 80L10 80L10 70L0 70M30 80L30 90L50 90L50 80L30 80M80 80L80 90L90 90L90 80L80 80z"></path>
</svg>