<svg xmlns="http://www.w3.org/2000/svg" width="92mm" height="92mm" viewBox="0 0 90 90">
<path style="fill:#ffffff; stroke:none;" d="M0 0L0 10L20 10L20 0L0 0z"></path>
<path style="fill:#000000; stroke:none;" d="M20 0L20 10L0 10L0 20L10 20L10 30L0 30L0 40L10 40L10 60L0 60L0 70L10 70L10 80L0 80L0 90L10 90L10 80L20 80L20 90L30 90L30 80L60 80L60 90L80 90L80 70L90 70L90 50L80 50L80 40L90 40L90 10L80 10L80 0L70 0L70 10L30 10L30 0L20 0z"></path>
<path style="fill:#ffffff; stroke:none;" d="M30 0L30 10L70 10L70 0L30 0M80 0L80 10L90 10L90 0L80 0M0 20L0 30L10 30L10 20L0 20M20 20L20 70L70 70L70 20L20 20M0 40L0 60L10 60L10 40L0 40z"></path>
<path style="fill:#000000; stroke:none;" d="M30 40L30 50L40 50L40 60L50 60L50 50L40 50L40 40L30 40z"></path>
<path style="fill:#ffffff; stroke:none;" d="M80 40L80 50L90 50L90 40L80 40M0 70L0 80L10 80L10 70L0 70M80 70L80 90L90 90L90 70L80 70M10 80L10 90L20 90L20 80L10 80M30 80L30 90L60 90L60 80L30 80z"></path>
</svg>